<svg width="16" height="16" viewBox="0 0 16 16" fill="none" xmlns="http://www.w3.org/2000/svg">
<path fill-rule="evenodd" clip-rule="evenodd" d="M0.119165 15.1722C-0.0497778 15.3718 -0.0374728 15.6677 0.147467 15.8526C0.332407 16.0376 0.628235 16.0499 0.827894 15.8809L7.99995 9.81223L15.1721 15.881C15.3718 16.05 15.6676 16.0377 15.8525 15.8527C16.0375 15.6678 16.0498 15.3719 15.8808 15.1723L9.81211 8.0001L15.881 0.827724C16.05 0.628064 16.0377 0.332235 15.8527 0.147294C15.6678 -0.0376464 15.3719 -0.0499513 15.1723 0.118992L7.99995 6.18792L0.82772 0.119088C0.628061 -0.0498549 0.332233 -0.0375498 0.147293 0.147391C-0.0376462 0.332331 -0.0499511 0.628161 0.118991 0.827821L6.18782 8.0001L0.119165 15.1722Z" fill="white" fill-opacity="0.4"/>
</svg>
